<?xml version="1.0" encoding="iso-8859-1"?>
<!-- Uploaded to: SVG Repo, www.svgrepo.com, Generator: SVG Repo Mixer Tools -->
<svg fill="#000000" height="800px" width="800px" version="1.1" id="Layer_1" xmlns="http://www.w3.org/2000/svg" xmlns:xlink="http://www.w3.org/1999/xlink" 
	 viewBox="0 0 496 496" xml:space="preserve">
<g>
	<g>
		<g>
			<path d="M184,152c8.528,0,16.232-3.4,21.976-8.856C214.16,157.952,229.92,168,248,168s33.84-10.048,42.024-24.856
				C295.768,148.6,303.472,152,312,152c17.648,0,32-14.352,32-32s-14.352-32-32-32c-8.528,0-16.232,3.4-21.976,8.856
				C281.84,82.048,266.08,72,248,72c-18.08,0-33.84,10.048-42.024,24.856C200.232,91.4,192.528,88,184,88c-17.648,0-32,14.352-32,32
				S166.352,152,184,152z M312,104c8.824,0,16,7.176,16,16s-7.176,16-16,16c-8.824,0-16-7.176-16-16
				C296,111.176,303.176,104,312,104z M248,88c17.648,0,32,14.352,32,32s-14.352,32-32,32s-32-14.352-32-32S230.352,88,248,88z
				 M184,104c8.824,0,16,7.176,16,16s-7.176,16-16,16c-8.824,0-16-7.176-16-16C168,111.176,175.176,104,184,104z"/>
			<path d="M472,345.136V150.864c13.768-3.576,24-15.992,24-30.864c0-17.648-14.352-32-32-32c-9.528,0-18,4.264-23.864,10.888
				l-160.52-63.064C279.768,34.552,280,33.312,280,32c0-17.648-14.352-32-32-32s-32,14.352-32,32c0,1.312,0.232,2.552,0.384,3.824
				L55.864,98.888C50,92.264,41.528,88,32,88c-17.648,0-32,14.352-32,32c0,14.872,10.232,27.288,24,30.864v194.272
				C10.232,348.712,0,361.128,0,376c0,17.648,14.352,32,32,32c9.528,0,18-4.264,23.864-10.888l160.52,63.064
				C216.232,461.448,216,462.688,216,464c0,17.648,14.352,32,32,32s32-14.352,32-32c0-1.312-0.232-2.552-0.384-3.824l160.52-63.064
				C446,403.736,454.472,408,464,408c17.648,0,32-14.352,32-32C496,361.128,485.768,348.712,472,345.136z M464,104
				c8.824,0,16,7.176,16,16s-7.176,16-16,16c-8.824,0-16-7.176-16-16C448,111.176,455.176,104,464,104z M248,16
				c8.824,0,16,7.176,16,16s-7.176,16-16,16c-8.824,0-16-7.176-16-16S239.176,16,248,16z M63.232,113.184l158.944-62.448
				C228,58.736,237.368,64,248,64s20-5.264,25.824-13.264l158.944,62.448c-0.48,2.2-0.768,4.472-0.768,6.816
				s0.288,4.616,0.768,6.816l-158.944,62.448C268,181.264,258.632,176,248,176c-10.632,0-20,5.264-25.824,13.264L63.232,126.816
				c0.48-2.2,0.768-4.472,0.768-6.816S63.712,115.384,63.232,113.184z M248,296.648L362.984,344L248,391.352L133.016,344
				L248,296.648z M120,332.056V211.944l120,49.408v21.296L120,332.056z M256,282.648V261.36l120-49.408v120.104L256,282.648z
				 M248,224c-8.824,0-16-7.176-16-16c0-8.824,7.176-16,16-16c8.824,0,16,7.176,16,16C264,216.824,256.824,224,248,224z M16,120
				c0-8.824,7.176-16,16-16s16,7.176,16,16s-7.176,16-16,16S16,128.824,16,120z M32,392c-8.824,0-16-7.176-16-16
				c0-8.824,7.176-16,16-16s16,7.176,16,16C48,384.824,40.824,392,32,392z M222.176,445.264L63.232,382.816
				c0.48-2.2,0.768-4.472,0.768-6.816c0-14.872-10.232-27.288-24-30.864V150.864c6.248-1.624,11.712-5.064,15.864-9.752
				l160.52,63.064C216.232,205.448,216,206.688,216,208c0,14.872,10.232,27.288,24,30.864v5.192l-136-56V349.36l136,55.992v27.784
				C232.728,435.024,226.48,439.352,222.176,445.264z M248,480c-8.824,0-16-7.176-16-16c0-8.824,7.176-16,16-16
				c8.824,0,16,7.176,16,16C264,472.824,256.824,480,248,480z M432,376c0,2.344,0.288,4.616,0.768,6.816l-158.944,62.448
				c-4.304-5.912-10.552-10.24-17.824-12.128v-27.784l136-55.992V188.056l-136,56v-5.192c13.768-3.576,24-15.992,24-30.864
				c0-1.312-0.232-2.552-0.384-3.824l160.52-63.064c4.152,4.696,9.616,8.136,15.864,9.752v194.272
				C442.232,348.712,432,361.128,432,376z M464,392c-8.824,0-16-7.176-16-16c0-8.824,7.176-16,16-16c8.824,0,16,7.176,16,16
				C480,384.824,472.824,392,464,392z"/>
		</g>
	</g>
</g>
</svg>